<svg id="Calque_1" data-name="Calque 1" xmlns="http://www.w3.org/2000/svg" viewBox="0 0 40 40"><defs><style>.cls-1{fill:#9b9696;}</style></defs><title>icone_IG</title><path class="cls-1" d="M306,400a3.9,3.9,0,1,0-3.9-3.89A3.89,3.89,0,0,0,306,400Z" transform="translate(-286 -376)"/><path class="cls-1" d="M310.41,392.12h2.87c.33,0,.43-.44.43-.44v-2.84c0-.45-.51-.5-.51-.5h-2.74c-.5,0-.55.55-.55.55v2.69a.53.53,0,0,0,.5.54Z" transform="translate(-286 -376)"/><path class="cls-1" d="M310.61,400.11a6.75,6.75,0,0,1-4.53,2.15,6.36,6.36,0,0,1-4.06-1.45,6.24,6.24,0,0,1-2-6.29h-1.92s0,8.36,0,8.82.57.56.57.56h14.49c.55,0,.59-.59.59-.59v-8.83h-1.87a6.85,6.85,0,0,1-1.28,5.63Z" transform="translate(-286 -376)"/><path class="cls-1" d="M306,376a20,20,0,1,0,20,20,20,20,0,0,0-20-20Zm9.81,27.4a2.83,2.83,0,0,1-2.75,2.9H298.82a2.83,2.83,0,0,1-2.75-2.9V388.84a2.83,2.83,0,0,1,2.75-2.9h14.24a2.83,2.83,0,0,1,2.75,2.9V403.4Z" transform="translate(-286 -376)"/></svg>