<svg id="Calque_1" data-name="Calque 1" xmlns="http://www.w3.org/2000/svg" viewBox="0 0 40 40"><defs><style>.cls-1{fill:#9b9696;}</style></defs><title>icone_YT</title><polygon class="cls-1" points="11.73 20.87 13.2 20.87 13.2 28.79 14.58 28.79 14.58 20.89 16.05 20.89 16.05 19.59 11.73 19.59 11.73 20.87 11.73 20.87"/><path class="cls-1" d="M306.09,390.9c.5,0,.45-.64.45-.64v-3.43a.5.5,0,0,0-.5-.56.52.52,0,0,0-.53.55v3.44c0,.78.58.64.58.64Z" transform="translate(-286 -376)"/><path class="cls-1" d="M304.55,403.23c-1.11,1.12-1.08.25-1.08.25V397.9l-1.24,0s0,3.25,0,5.77,2.36.4,2.36.4v.73h1.26V397.9h-1.28v5.33Z" transform="translate(-286 -376)"/><path class="cls-1" d="M308.13,398.56v-3h-1.26v9.21h1.26v-.69c2.29,1.88,2.37-.55,2.37-.55v-4.25c-.15-2.82-2.37-.77-2.37-.77Zm1.13,4.69s-.12.75-1.15.16v-4.16s1.15-.84,1.15.3v3.7Z" transform="translate(-286 -376)"/><path class="cls-1" d="M306,376a20,20,0,1,0,20,20,20,20,0,0,0-20-20Zm2.91,9.24h1.2v5.43s0,.8,1.08-.25V385.2h1.21V392h-1.21v-.69s-1.14,1.43-2.06.51a1.2,1.2,0,0,1-.24-.85l0-5.72Zm-2.87-.16a1.64,1.64,0,0,1,1.8,1.71v3.55a1.67,1.67,0,0,1-1.8,1.74s-1.78,0-1.78-1.66,0-3.51,0-3.51a1.73,1.73,0,0,1,1.77-1.83Zm-5.1-2.18,1,3.58,1-3.6h1.33l-1.65,5.44V392h-1.36v-3.71l-1.73-5.42Zm15.56,22a2.55,2.55,0,0,1-2.39,2.14,104.22,104.22,0,0,1-14.9,0s-2.42,0-2.51-3.56c0,0-.3-6.47.21-7.71a3,3,0,0,1,2-2.18,85.37,85.37,0,0,1,15.66,0,2.67,2.67,0,0,1,2,2.27,33.63,33.63,0,0,1,0,9Z" transform="translate(-286 -376)"/><path class="cls-1" d="M313.38,397.8a1.8,1.8,0,0,0-1.88,1.88v3.43a1.84,1.84,0,0,0,2,1.74s1.67-.06,1.67-1.51v-1h-1.25v.71s0,.64-.55.64c0,0-.65.09-.65-.74v-1.4h2.46v-2a1.86,1.86,0,0,0-1.81-1.81Zm.58,2.72h-1.23v-.84s0-.72.58-.72.64.73.64.73v.83Z" transform="translate(-286 -376)"/></svg>