<svg id="Calque_1" data-name="Calque 1" xmlns="http://www.w3.org/2000/svg" viewBox="0 0 74.08 63"><defs><style>.cls-1{fill:#fff;}</style></defs><title>logo_humanima_blanc</title><path class="cls-1" d="M329.85,388.81a23.81,23.81,0,1,0-41,16.47h0l.39.4a40.6,40.6,0,0,0,4.31-5c.49-.7,3.06-4.88,3.47-5.63,1.91-3.46,1.94-7.07,2-10.24v-.72a33.35,33.35,0,0,1,.21-5,7.07,7.07,0,0,1,2.12-2.52,3.18,3.18,0,0,1,1.8-.68,3.75,3.75,0,0,1,2.47,1.67h0l0,0a3.54,3.54,0,0,0-3.12.69c-1.76,2-1.78,3.24-1.83,5.73v.11l.55,0v-.12c0-2.5.07-3.54,1.69-5.36a3.2,3.2,0,0,1,3.25-.31,8.78,8.78,0,0,1,2.18,3,12.94,12.94,0,0,1,1.18,5.06l-.15.32a2.87,2.87,0,0,0-1.83-.54,4.27,4.27,0,0,0-3.34,1.92,7.65,7.65,0,0,0-1.4,3.76l.56.05a7.07,7.07,0,0,1,1.3-3.49,3.7,3.7,0,0,1,2.88-1.68,2.24,2.24,0,0,1,1.65.56,4,4,0,0,0-.09.48,7.06,7.06,0,0,0,.57,4,1.77,1.77,0,0,0,.39.43c.12.1.28.24.29.31s0,.57,0,.82a8.28,8.28,0,0,0-3.11,4.41c0,.11,0,.22-.07.33a4.08,4.08,0,0,1-.37,1.15,4,4,0,0,1-.62.78l-.12.12a13.18,13.18,0,0,0-2,2.83,7.15,7.15,0,0,0-.43,1.08,4.45,4.45,0,0,1-.65,1.37,19.34,19.34,0,0,1-1.93,1.91c-.36.3-.71.58-1.06.85a24.16,24.16,0,0,0-2.91,2.57l.56.22h0A23.85,23.85,0,0,0,317,410h0l.53-.28c-1.69-1.44-3.6-3.08-4.86-4.31a1.74,1.74,0,0,1-.19-.22,1.24,1.24,0,0,0-.59-.42,11.55,11.55,0,0,0-1.18-.37,3.87,3.87,0,0,1-2.26-1.71,7.19,7.19,0,0,1-1.23-2.79,1.58,1.58,0,0,0,.15-.24,4.39,4.39,0,0,0,.42-1.3l.08-.32a7.29,7.29,0,0,1,2.53-3.78v.29a10,10,0,0,1-.07,1.24l.56.06a11.13,11.13,0,0,0,.07-1.3c0-.26,0-.53,0-.9a7.41,7.41,0,0,0,0-1.05,1.14,1.14,0,0,0-.47-.65,1.29,1.29,0,0,1-.26-.27,6.49,6.49,0,0,1-.51-3.72,3.15,3.15,0,0,1,1.11-2.12,1.78,1.78,0,0,1,1.42-.35,1.24,1.24,0,0,1,.6.27,2.34,2.34,0,0,1,.56,1.37,7.14,7.14,0,0,0,.18.77,5.32,5.32,0,0,0,.65,1.28,4,4,0,0,1,.66,1.48,2.38,2.38,0,0,1,0,.53c0,.14,0,.28,0,.43a8.16,8.16,0,0,0,.54,2.63,8,8,0,0,1,.48,4.54l.55.08a8.56,8.56,0,0,0-.52-4.84,7.66,7.66,0,0,1-.49-2.42c0-.13,0-.25,0-.38a2.74,2.74,0,0,0,0-.64,4.25,4.25,0,0,0-.73-1.7,5.76,5.76,0,0,1-.6-1.15c-.07-.23-.11-.48-.16-.72a2.78,2.78,0,0,0-.73-1.68,1.74,1.74,0,0,0-.89-.4,2.3,2.3,0,0,0-1.84.45,2.64,2.64,0,0,0-.39.36,14,14,0,0,0-1.19-4.51,9.44,9.44,0,0,0-2.32-3.22,16.38,16.38,0,0,1-1.76-3,3,3,0,0,1-.38-1.5,1.05,1.05,0,0,1,.77-1,1.42,1.42,0,0,1,1.1.51,10,10,0,0,1,1.63,2.06,10.3,10.3,0,0,0,1.62,2.06c.19.18.42.37.65.57a16.53,16.53,0,0,1,1.43,1.33,3,3,0,0,1,.63,1.14,25.8,25.8,0,0,0,1.16,4.24,17,17,0,0,0,.91,1.48l.23.35,0,0a5,5,0,0,1,1,2.22,19.1,19.1,0,0,0,1.14,6.55,13.11,13.11,0,0,0,2.71,3.95,25.86,25.86,0,0,0,5.36,4.55c.12-.15.24-.29.35-.44h0a23.69,23.69,0,0,0,4.79-14.31ZM301,376.19l-.49.42c-.1-.33-.19-.66-.27-1a3.47,3.47,0,0,1-.09-1.21,1.08,1.08,0,0,1,.41-.86.64.64,0,0,1,.47,0c.09.21.17.42.26.64.21.52.42,1,.59,1.51a3.11,3.11,0,0,0-.88.51Zm3.62-.29a2.74,2.74,0,0,0-1.52-.51,6.58,6.58,0,0,0-.69.12c-.17-.49-.38-1-.6-1.55l-.29-.72a3.07,3.07,0,0,1-.08-1.84,1.49,1.49,0,0,1,.5-.85,1,1,0,0,1,.54-.16c0,.05,0,.1,0,.16a8.28,8.28,0,0,0,.65,1.85l.38.84.38.84a4.73,4.73,0,0,0,.39,1.15c.1.23.21.45.32.67Zm.49-3.93a1.47,1.47,0,0,0-1.11,1c-.13-.28-.25-.56-.34-.76a7.67,7.67,0,0,1-.61-1.72,1.88,1.88,0,0,1,.1-1.11.6.6,0,0,1,.68-.37c.43.12.85.85,1.1,1.28.07.13.14.24.19.32s.48.85.87,1.57a1.48,1.48,0,0,0-.88-.17Z" transform="translate(-269 -365)"/><path class="cls-1" d="M275,420.38a3.71,3.71,0,0,1,.72,2.36v4.61a.49.49,0,1,1-1,0v-4.61a2.78,2.78,0,0,0-.5-1.71,1.88,1.88,0,0,0-1.58-.66,2.7,2.7,0,0,0-1.3.33,2.65,2.65,0,0,0-1,.87,2,2,0,0,0-.37,1.17v4.61a.48.48,0,0,1-.14.35.5.5,0,0,1-.35.14.48.48,0,0,1-.49-.49V416.29a.48.48,0,0,1,.14-.35.45.45,0,0,1,.35-.14.46.46,0,0,1,.35.14.48.48,0,0,1,.14.35v4.76a3.36,3.36,0,0,1,1.22-1.14,3.15,3.15,0,0,1,1.59-.45,2.6,2.6,0,0,1,2.18.92Z" transform="translate(-269 -365)"/><path class="cls-1" d="M284.23,419.71a.48.48,0,0,1,.14.35v4.59a3.26,3.26,0,0,1-.89,2.45A3.46,3.46,0,0,1,281,428a3.4,3.4,0,0,1-2.45-.85,3.25,3.25,0,0,1-.88-2.45v-4.59a.48.48,0,0,1,.13-.35.51.51,0,0,1,.36-.14.5.5,0,0,1,.35.14.48.48,0,0,1,.13.35v4.59a2.41,2.41,0,0,0,.62,1.78A2.35,2.35,0,0,0,281,427a2.15,2.15,0,0,0,2.39-2.39v-4.59a.48.48,0,0,1,.14-.35.5.5,0,0,1,.35-.14.48.48,0,0,1,.35.14Z" transform="translate(-269 -365)"/><path class="cls-1" d="M297.94,420.36a3.82,3.82,0,0,1,.7,2.38v4.61a.48.48,0,0,1-.14.35.5.5,0,0,1-.35.14.48.48,0,0,1-.35-.14.45.45,0,0,1-.14-.35v-4.56a2.84,2.84,0,0,0-.51-1.75,1.89,1.89,0,0,0-1.59-.67,2.82,2.82,0,0,0-2.28,1.21,2.15,2.15,0,0,0-.37,1.21v4.56a.49.49,0,1,1-1,0v-4.61a2.77,2.77,0,0,0-.49-1.71,1.76,1.76,0,0,0-1.53-.66,2.58,2.58,0,0,0-1.26.33,2.67,2.67,0,0,0-1,.87,2.07,2.07,0,0,0-.36,1.17v4.61a.49.49,0,1,1-1,0v-7.29a.49.49,0,1,1,1,0V421a3.51,3.51,0,0,1,1.19-1.1,3,3,0,0,1,1.57-.44,2.91,2.91,0,0,1,1.63.45,2.57,2.57,0,0,1,1,1.34A3,3,0,0,1,294,420a3.66,3.66,0,0,1,1.84-.53,2.54,2.54,0,0,1,2.15.9Z" transform="translate(-269 -365)"/><path class="cls-1" d="M307.72,419.67a.52.52,0,0,1,.14.36v7.32a.5.5,0,0,1-.84.35.45.45,0,0,1-.14-.35v-1.09a3.44,3.44,0,0,1-1.22,1.24,3.34,3.34,0,0,1-1.77.5,3.55,3.55,0,0,1-2-.57,4,4,0,0,1-1.36-1.56,4.94,4.94,0,0,1-.5-2.23,4.78,4.78,0,0,1,.51-2.22,3.8,3.8,0,0,1,1.37-1.54,3.5,3.5,0,0,1,1.93-.55,3.54,3.54,0,0,1,1.79.47,3.09,3.09,0,0,1,1.22,1.24v-1a.48.48,0,0,1,.14-.36.48.48,0,0,1,.7,0Zm-2.22,7a3,3,0,0,0,1.06-1.24,3.89,3.89,0,0,0,.38-1.76,3.78,3.78,0,0,0-.38-1.72,3,3,0,0,0-1.06-1.23,2.66,2.66,0,0,0-1.52-.45,2.76,2.76,0,0,0-1.52.44,3,3,0,0,0-1.06,1.21,4,4,0,0,0-.38,1.75,4,4,0,0,0,.38,1.76,3,3,0,0,0,1.05,1.24,2.7,2.7,0,0,0,1.53.45,2.66,2.66,0,0,0,1.52-.45Z" transform="translate(-269 -365)"/><path class="cls-1" d="M316,420.21a3.71,3.71,0,0,1,.71,2.36v4.78a.45.45,0,0,1-.15.35.49.49,0,0,1-.34.14.48.48,0,0,1-.49-.49v-4.73a2.68,2.68,0,0,0-.53-1.72,2,2,0,0,0-1.63-.66,2.82,2.82,0,0,0-1.33.33,2.76,2.76,0,0,0-1,.86,2,2,0,0,0-.39,1.19v4.73a.45.45,0,0,1-.14.35.47.47,0,0,1-.35.14.5.5,0,0,1-.35-.14.48.48,0,0,1-.13-.35v-7.29a.48.48,0,0,1,.13-.35.5.5,0,0,1,.35-.14.47.47,0,0,1,.35.14.45.45,0,0,1,.14.35v.9a3.56,3.56,0,0,1,1.26-1.17,3.39,3.39,0,0,1,1.69-.46,2.67,2.67,0,0,1,2.22.88Z" transform="translate(-269 -365)"/><path class="cls-1" d="M318.62,418.13a.55.55,0,0,1-.18-.45v-.16a.52.52,0,0,1,.19-.44.73.73,0,0,1,.51-.16c.43,0,.65.2.65.6v.16a.58.58,0,0,1-.17.45.7.7,0,0,1-.5.16.72.72,0,0,1-.5-.16Zm.85,9.57a.49.49,0,0,1-.84-.35v-7.49a.46.46,0,0,1,.14-.34.51.51,0,0,1,.7,0,.46.46,0,0,1,.14.34v7.49a.48.48,0,0,1-.14.35Z" transform="translate(-269 -365)"/><path class="cls-1" d="M333.17,420.36a3.82,3.82,0,0,1,.69,2.38v4.61a.49.49,0,1,1-1,0v-4.56a2.84,2.84,0,0,0-.51-1.75,1.89,1.89,0,0,0-1.59-.67,2.69,2.69,0,0,0-1.29.33,2.53,2.53,0,0,0-1,.88,2.16,2.16,0,0,0-.38,1.21v4.56a.45.45,0,0,1-.14.35.48.48,0,0,1-.35.14.5.5,0,0,1-.35-.14.48.48,0,0,1-.14-.35v-4.61a2.84,2.84,0,0,0-.48-1.71,1.79,1.79,0,0,0-1.53-.66,2.73,2.73,0,0,0-2.22,1.2,2,2,0,0,0-.37,1.17v4.61a.49.49,0,1,1-1,0v-7.29a.49.49,0,1,1,1,0V421a3.51,3.51,0,0,1,1.19-1.1,3,3,0,0,1,1.58-.44,2.85,2.85,0,0,1,1.62.45,2.52,2.52,0,0,1,1,1.34,3,3,0,0,1,1.25-1.26,3.66,3.66,0,0,1,1.84-.53,2.55,2.55,0,0,1,2.16.9Z" transform="translate(-269 -365)"/><path class="cls-1" d="M342.94,419.67a.52.52,0,0,1,.14.36v7.32a.49.49,0,1,1-1,0v-1.09a3.44,3.44,0,0,1-1.22,1.24,3.34,3.34,0,0,1-1.77.5,3.49,3.49,0,0,1-2-.57,3.93,3.93,0,0,1-1.37-1.56,4.94,4.94,0,0,1-.49-2.23,4.77,4.77,0,0,1,.5-2.22,3.87,3.87,0,0,1,1.37-1.54,3.65,3.65,0,0,1,3.72-.08A3.09,3.09,0,0,1,342.1,421v-1a.52.52,0,0,1,.14-.36.48.48,0,0,1,.7,0Zm-2.21,7a3.07,3.07,0,0,0,1.06-1.24,4,4,0,0,0,.38-1.76,3.91,3.91,0,0,0-.38-1.72,3,3,0,0,0-1.06-1.23,2.69,2.69,0,0,0-1.52-.45,2.79,2.79,0,0,0-1.53.44,3,3,0,0,0-1.05,1.21,3.85,3.85,0,0,0-.39,1.75,4,4,0,0,0,.38,1.76,3,3,0,0,0,1.05,1.24,2.83,2.83,0,0,0,3.06,0Z" transform="translate(-269 -365)"/></svg>