<svg id="Calque_1" data-name="Calque 1" xmlns="http://www.w3.org/2000/svg" viewBox="0 0 141.1 120"><defs><style>.cls-1{fill:#a72d62;}.cls-2{fill:#3c3c3b;}</style></defs><title>logo_humanima</title><path class="cls-1" d="M350.91,381.35a45.36,45.36,0,1,0-78.09,31.37h0l.75.76a77.3,77.3,0,0,0,8.21-9.51c.94-1.34,5.83-9.3,6.62-10.73,3.63-6.59,3.69-13.45,3.74-19.51v-1.36c0-2.82,0-8.07.4-9.43s2.65-3.69,4-4.79a6.05,6.05,0,0,1,3.44-1.3c1.12-.11,3.6,1.42,4.71,3.18h0l0,0c-2.21-.46-4.8.05-5.94,1.32-3.34,3.78-3.39,6.16-3.49,10.91v.22l1.07,0v-.23c.09-4.76.14-6.74,3.22-10.22,1-1.12,4.09-1.6,6.2-.57a16.87,16.87,0,0,1,4.15,5.76,24.82,24.82,0,0,1,2.24,9.64c-.1.2-.2.41-.28.62a5.44,5.44,0,0,0-3.48-1,8.15,8.15,0,0,0-6.37,3.66,14.42,14.42,0,0,0-2.67,7.16l1.06.1a13.41,13.41,0,0,1,2.49-6.65,7.07,7.07,0,0,1,5.49-3.2,4.21,4.21,0,0,1,3.13,1.07,6.93,6.93,0,0,0-.16.91,13.36,13.36,0,0,0,1.08,7.69,2.91,2.91,0,0,0,.75.82c.22.19.51.45.54.6a14.76,14.76,0,0,1,.05,1.56c-3.28,2.67-5.21,5.42-5.91,8.4,0,.21-.1.42-.14.63a7.73,7.73,0,0,1-.69,2.18,8.26,8.26,0,0,1-1.2,1.49l-.23.24a25.51,25.51,0,0,0-3.85,5.38,12.94,12.94,0,0,0-.83,2.05,8.16,8.16,0,0,1-1.25,2.62,36,36,0,0,1-3.66,3.64c-.69.56-1.36,1.09-2,1.61a46.28,46.28,0,0,0-5.55,4.89c.35.15.71.29,1.07.42h0a45.28,45.28,0,0,0,36.76-2.12h0l1-.54c-3.21-2.74-6.85-5.87-9.25-8.21a4.13,4.13,0,0,1-.37-.41,2.25,2.25,0,0,0-1.12-.81c-.52-.2-1.7-.57-2.24-.7a7.42,7.42,0,0,1-4.32-3.26,13.53,13.53,0,0,1-2.33-5.32c.1-.14.2-.29.29-.44a8.72,8.72,0,0,0,.8-2.49c0-.2.09-.4.13-.61a14.08,14.08,0,0,1,4.83-7.21v.57a21.52,21.52,0,0,1-.12,2.35l1.06.12a21.71,21.71,0,0,0,.12-2.47c0-.49,0-1,.05-1.71a14.8,14.8,0,0,0-.06-2,2.21,2.21,0,0,0-.89-1.25,2.36,2.36,0,0,1-.5-.51,12.39,12.39,0,0,1-1-7.08,6,6,0,0,1,2.12-4.05,3.3,3.3,0,0,1,2.69-.65,2.22,2.22,0,0,1,1.15.5,4.51,4.51,0,0,1,1.07,2.61,13.16,13.16,0,0,0,.34,1.48,10.31,10.31,0,0,0,1.24,2.43,7.38,7.38,0,0,1,1.25,2.81,5,5,0,0,1,0,1c0,.27,0,.54,0,.81a15.57,15.57,0,0,0,1,5,15.09,15.09,0,0,1,.91,8.64l1.06.17a16.31,16.31,0,0,0-1-9.22,14.78,14.78,0,0,1-.94-4.62q0-.34,0-.72a7.1,7.1,0,0,0,0-1.22,8.14,8.14,0,0,0-1.41-3.24,7.78,7.78,0,0,1-1.43-3.55,5.38,5.38,0,0,0-1.4-3.2,3.31,3.31,0,0,0-1.68-.76,4.44,4.44,0,0,0-3.52.84,6,6,0,0,0-.74.69,27,27,0,0,0-2.27-8.59c-1-2.42-2-3.66-4.41-6.12a32,32,0,0,1-3.37-5.73,5.9,5.9,0,0,1-.71-2.85,2,2,0,0,1,1.46-1.85,2.71,2.71,0,0,1,2.09,1,19.4,19.4,0,0,1,3.11,3.93,19.73,19.73,0,0,0,3.09,3.92c.37.34.8.71,1.25,1.1a31,31,0,0,1,2.71,2.52,5.59,5.59,0,0,1,1.21,2.17,46.36,46.36,0,0,0,2.21,8.08c.4.8,1.14,1.92,1.73,2.83l.43.66,0,.06c.78,1.2,1.84,2.86,1.84,4.21a36.09,36.09,0,0,0,2.17,12.48c1,2.78,3,5.05,5.17,7.52a49.19,49.19,0,0,0,10.21,8.68l.66-.85h0a45.13,45.13,0,0,0,9.13-27.26Zm-55-24c-.05,0-.42.34-.92.8a16.32,16.32,0,0,1-.51-1.91,6.55,6.55,0,0,1-.18-2.31c.12-.81.27-1.31.77-1.63a1.36,1.36,0,0,1,.91,0c.15.4.32.81.49,1.24.4,1,.8,2,1.12,2.86a6.65,6.65,0,0,0-1.68,1Zm6.9-.55a5.06,5.06,0,0,0-2.9-1,8.22,8.22,0,0,0-1.3.21c-.33-.92-.74-1.94-1.15-2.94-.19-.47-.38-.94-.55-1.38a5.68,5.68,0,0,1-.16-3.49,2.81,2.81,0,0,1,1-1.62,1.86,1.86,0,0,1,1-.32c0,.1,0,.2,0,.31a15,15,0,0,0,1.24,3.52l.72,1.6c.27.59.53,1.17.72,1.6a9.74,9.74,0,0,0,.74,2.19c.2.44.41.86.62,1.29Zm.94-7.49a2.81,2.81,0,0,0-2.12,1.82l-.65-1.44a14.57,14.57,0,0,1-1.16-3.28,3.49,3.49,0,0,1,.19-2.11,1.16,1.16,0,0,1,1.31-.72c.8.25,1.6,1.63,2.08,2.46.14.23.26.44.36.59s.92,1.63,1.66,3a2.9,2.9,0,0,0-1.67-.31Z" transform="translate(-235 -336)"/><path class="cls-1" d="M246.37,441.48a7.13,7.13,0,0,1,1.37,4.51v8.77a.91.91,0,0,1-.93.93.94.94,0,0,1-.67-.26.9.9,0,0,1-.26-.67V446a5.25,5.25,0,0,0-1-3.27,3.55,3.55,0,0,0-3-1.26,5.06,5.06,0,0,0-2.46.63,5.18,5.18,0,0,0-1.88,1.65,3.94,3.94,0,0,0-.71,2.25v8.77a.93.93,0,1,1-1.86,0V433.69a.93.93,0,1,1,1.86,0v9.08a6.52,6.52,0,0,1,2.32-2.19,6.06,6.06,0,0,1,3-.85,4.92,4.92,0,0,1,4.15,1.75Z" transform="translate(-235 -336)"/><path class="cls-2" d="M264,440.21a.9.9,0,0,1,.27.67v8.74a6.12,6.12,0,0,1-1.71,4.66,6.54,6.54,0,0,1-4.71,1.63,6.45,6.45,0,0,1-4.66-1.63,6.15,6.15,0,0,1-1.69-4.66v-8.74a.94.94,0,0,1,.26-.67.9.9,0,0,1,.67-.26.86.86,0,0,1,.66.26.9.9,0,0,1,.27.67v8.74a4.08,4.08,0,0,0,4.49,4.55,4.66,4.66,0,0,0,3.37-1.16,4.54,4.54,0,0,0,1.19-3.39v-8.74a.94.94,0,0,1,.26-.67.9.9,0,0,1,.67-.26.86.86,0,0,1,.66.26Z" transform="translate(-235 -336)"/><path class="cls-2" d="M290.13,441.45a7.27,7.27,0,0,1,1.32,4.54v8.77a.91.91,0,0,1-.93.93.89.89,0,0,1-.93-.93v-8.68a5.38,5.38,0,0,0-1-3.33,3.55,3.55,0,0,0-3-1.29,5.34,5.34,0,0,0-4.34,2.31,4.16,4.16,0,0,0-.71,2.31v8.68a.91.91,0,0,1-.93.93.89.89,0,0,1-.93-.93V446a5.37,5.37,0,0,0-.93-3.27,3.38,3.38,0,0,0-2.91-1.26,4.9,4.9,0,0,0-2.41.63,5.08,5.08,0,0,0-1.82,1.65,3.93,3.93,0,0,0-.7,2.25v8.77a.93.93,0,1,1-1.86,0V440.88a.94.94,0,0,1,.26-.67,1,1,0,0,1,1.34,0,.94.94,0,0,1,.26.67v1.79a6.72,6.72,0,0,1,2.26-2.1,5.83,5.83,0,0,1,3-.84,5.45,5.45,0,0,1,3.1.87,4.8,4.8,0,0,1,1.86,2.54,5.73,5.73,0,0,1,2.38-2.39,6.87,6.87,0,0,1,3.5-1,4.84,4.84,0,0,1,4.11,1.72Z" transform="translate(-235 -336)"/><path class="cls-1" d="M308.75,440.13a1,1,0,0,1,.26.69v13.94a.93.93,0,1,1-1.86,0v-2.08a6.46,6.46,0,0,1-2.32,2.36,6.31,6.31,0,0,1-3.38,1,6.73,6.73,0,0,1-3.74-1.08,7.55,7.55,0,0,1-2.6-3,9.35,9.35,0,0,1-.94-4.25,9.11,9.11,0,0,1,1-4.22,7.34,7.34,0,0,1,2.62-2.94,6.92,6.92,0,0,1,7.08-.15,5.91,5.91,0,0,1,2.32,2.36v-1.92a1,1,0,0,1,.26-.69.94.94,0,0,1,1.34,0Zm-4.22,13.28a5.81,5.81,0,0,0,2-2.35,7.74,7.74,0,0,0,.72-3.37,7.44,7.44,0,0,0-.72-3.28,5.85,5.85,0,0,0-2-2.34,5.1,5.1,0,0,0-2.89-.85,5.26,5.26,0,0,0-2.9.83,5.76,5.76,0,0,0-2,2.31,7.51,7.51,0,0,0-.73,3.33,7.74,7.74,0,0,0,.72,3.37,5.62,5.62,0,0,0,2,2.35,5.35,5.35,0,0,0,5.82,0Z" transform="translate(-235 -336)"/><path class="cls-2" d="M324.48,441.17a7,7,0,0,1,1.35,4.48v9.11a.88.88,0,0,1-.28.67.92.92,0,0,1-.65.26.89.89,0,0,1-.93-.93v-9a5,5,0,0,0-1-3.27,3.77,3.77,0,0,0-3.11-1.25,5.56,5.56,0,0,0-4.46,2.27,3.8,3.8,0,0,0-.75,2.25v9a.89.89,0,0,1-.93.93.91.91,0,0,1-.93-.93V440.88a.9.9,0,0,1,.27-.67.86.86,0,0,1,.66-.26.9.9,0,0,1,.67.26.94.94,0,0,1,.26.67v1.7a7,7,0,0,1,5.61-3.1,5.08,5.08,0,0,1,4.23,1.69Z" transform="translate(-235 -336)"/><path class="cls-2" d="M329.51,437.2a1,1,0,0,1-.34-.85V436a1,1,0,0,1,.36-.85,1.44,1.44,0,0,1,1-.29c.83,0,1.24.38,1.24,1.14v.31a1.07,1.07,0,0,1-.33.85,1.33,1.33,0,0,1-.94.3,1.42,1.42,0,0,1-1-.3Zm1.63,18.23a.93.93,0,0,1-1.6-.67V440.51a.92.92,0,0,1,.26-.67,1,1,0,0,1,1.34,0,.92.92,0,0,1,.26.67v14.25a.94.94,0,0,1-.26.67Z" transform="translate(-235 -336)"/><path class="cls-2" d="M357.22,441.45a7.27,7.27,0,0,1,1.32,4.54v8.77a.93.93,0,1,1-1.86,0v-8.68a5.38,5.38,0,0,0-1-3.33,3.53,3.53,0,0,0-3-1.29,5.34,5.34,0,0,0-4.34,2.31,4.16,4.16,0,0,0-.71,2.31v8.68a.93.93,0,1,1-1.86,0V446a5.37,5.37,0,0,0-.93-3.27,3.38,3.38,0,0,0-2.91-1.26,4.84,4.84,0,0,0-2.4.63,5,5,0,0,0-1.83,1.65A3.93,3.93,0,0,0,337,446v8.77a.93.93,0,1,1-1.86,0V440.88a.94.94,0,0,1,.26-.67,1,1,0,0,1,1.34,0,.94.94,0,0,1,.26.67v1.79a6.72,6.72,0,0,1,2.26-2.1,5.83,5.83,0,0,1,3-.84,5.45,5.45,0,0,1,3.1.87,4.75,4.75,0,0,1,1.86,2.54,5.73,5.73,0,0,1,2.38-2.39,6.88,6.88,0,0,1,3.51-1,4.82,4.82,0,0,1,4.1,1.72Z" transform="translate(-235 -336)"/><path class="cls-2" d="M375.84,440.13a1,1,0,0,1,.26.69v13.94a.89.89,0,0,1-.93.93.91.91,0,0,1-.93-.93v-2.08a6.46,6.46,0,0,1-2.32,2.36,6.29,6.29,0,0,1-3.38,1,6.68,6.68,0,0,1-3.73-1.08,7.5,7.5,0,0,1-2.61-3,9.35,9.35,0,0,1-.94-4.25,9.11,9.11,0,0,1,1-4.22,7.34,7.34,0,0,1,2.62-2.94,6.92,6.92,0,0,1,7.08-.15,5.91,5.91,0,0,1,2.32,2.36v-1.92a1,1,0,0,1,.27-.69.87.87,0,0,1,.66-.28.91.91,0,0,1,.67.28Zm-4.22,13.28a5.81,5.81,0,0,0,2-2.35,7.75,7.75,0,0,0,.73-3.37,7.44,7.44,0,0,0-.73-3.28,5.85,5.85,0,0,0-2-2.34,5.08,5.08,0,0,0-2.89-.85,5.26,5.26,0,0,0-2.9.83,5.66,5.66,0,0,0-2,2.31,7.37,7.37,0,0,0-.73,3.33,7.74,7.74,0,0,0,.71,3.37,5.62,5.62,0,0,0,2,2.35,5.15,5.15,0,0,0,2.93.86,5.09,5.09,0,0,0,2.89-.86Z" transform="translate(-235 -336)"/></svg>